<?xml version="1.0" encoding="utf-8"?>
<!-- Generator: Adobe Illustrator 16.0.0, SVG Export Plug-In . SVG Version: 6.00 Build 0)  -->
<!DOCTYPE svg PUBLIC "-//W3C//DTD SVG 1.1//EN" "http://www.w3.org/Graphics/SVG/1.1/DTD/svg11.dtd">
<svg version="1.1" id="Layer_1" xmlns="http://www.w3.org/2000/svg" xmlns:xlink="http://www.w3.org/1999/xlink" x="0px" y="0px"
	 width="20px" height="20px" viewBox="0 0 20 20" enable-background="new 0 0 20 20" xml:space="preserve">
<g>
	<defs>
		<rect id="SVGID_1_" y="0.165" width="19.835" height="19.835"/>
	</defs>
	<clipPath id="SVGID_2_">
		<use xlink:href="#SVGID_1_"  overflow="visible"/>
	</clipPath>
	<path clip-path="url(#SVGID_2_)" fill="#F0F0F0" d="M6.026,8.223H6.013C5.997,8.257,5.985,8.293,5.969,8.328
		c-0.015,0.036-0.03,0.071-0.045,0.106c-0.214,0.51-0.346,1.061-0.346,1.648c0,2.393,1.947,4.339,4.34,4.339
		c2.392,0,4.337-1.946,4.337-4.339c0-0.59-0.133-1.145-0.349-1.657c-0.013-0.029-0.024-0.058-0.037-0.087
		c-0.017-0.038-0.03-0.077-0.048-0.115h-0.015c-0.22-0.463-0.509-0.885-0.87-1.24h0.007c-0.11-0.108-0.239-0.196-0.36-0.292
		c-0.091-0.072-0.173-0.154-0.27-0.218c-0.096-0.064-0.203-0.108-0.303-0.165c-0.142-0.079-0.277-0.166-0.428-0.229
		c-0.13-0.054-0.271-0.084-0.405-0.126c-0.133-0.041-0.26-0.094-0.397-0.123c-0.279-0.056-0.568-0.086-0.863-0.086H9.917H9.917
		c-0.112,0-0.216,0.024-0.325,0.032C9.411,5.79,9.229,5.795,9.056,5.83C8.791,5.884,8.535,5.966,8.289,6.067
		c-0.011,0.004-0.023,0.006-0.034,0.01C8.037,6.167,7.833,6.286,7.633,6.411C7.598,6.432,7.559,6.447,7.525,6.469
		C7.396,6.555,7.284,6.661,7.167,6.76C7.075,6.836,6.974,6.9,6.89,6.983h0.006C6.535,7.338,6.245,7.76,6.026,8.223"/>
	<path clip-path="url(#SVGID_2_)" fill="#F0F0F0" d="M15.497,10.082c0,3.076-2.503,5.579-5.579,5.579s-5.58-2.503-5.58-5.579
		c0-0.653,0.119-1.277,0.326-1.859H0V20h19.835V8.223h-4.663C15.379,8.805,15.497,9.429,15.497,10.082"/>
	<path clip-path="url(#SVGID_2_)" fill="#F0F0F0" d="M18.596,3.884h-2.479V1.405h2.479V3.884z M0,0.165v6.817h5.281
		c1.003-1.493,2.706-2.479,4.637-2.479c1.93,0,3.634,0.986,4.636,2.479h5.281V0.165H0z"/>
</g>
</svg>
