<?xml version="1.0" encoding="utf-8"?>
<!-- Generator: Adobe Illustrator 16.0.0, SVG Export Plug-In . SVG Version: 6.00 Build 0)  -->
<!DOCTYPE svg PUBLIC "-//W3C//DTD SVG 1.1//EN" "http://www.w3.org/Graphics/SVG/1.1/DTD/svg11.dtd">
<svg version="1.1" id="Layer_1" xmlns="http://www.w3.org/2000/svg" xmlns:xlink="http://www.w3.org/1999/xlink" x="0px" y="0px"
	 width="36px" height="36px" viewBox="0 0 36 36" enable-background="new 0 0 36 36" xml:space="preserve">
<rect x="43" y="-42" fill="#E4E4E4" width="36" height="36"/>
<rect y="-41" fill="#046CC6" width="36" height="36"/>
<text transform="matrix(1 0 0 1 60.5747 -86.2598)" fill="#046CC6" font-family="'Swiss721BT-Medium'" font-size="12" letter-spacing="1">Bradley Rothenberg</text>
<path fill="#046CC6" d="M-50.117-152.216c1.799,0,2.698,0.719,2.698,2.183c0,0.828-0.432,1.487-1.151,1.787
	c0.983,0.276,1.511,0.995,1.511,2.099c0,1.511-1.067,2.555-3.01,2.555h-3.778v-8.623H-50.117z M-52.444-148.714h2.039
	c1.043,0,1.547-0.348,1.547-1.211c0-0.744-0.504-1.091-1.5-1.091h-2.086V-148.714z M-52.444-144.864h2.254
	c1.104,0,1.655-0.443,1.655-1.355c0-0.959-0.588-1.319-1.739-1.319h-2.17V-144.864z"/>
<path fill="#046CC6" d="M-41.022-148.666h-0.36c-1.08,0-1.619,0.54-1.619,1.631v3.442h-1.331v-6.32h1.259v1.115
	c0.372-0.852,0.959-1.259,1.751-1.259c0.024,0,0.132,0.012,0.3,0.012V-148.666z"/>
<path fill="#046CC6" d="M-36.941-143.389c-1.295,0-2.039-0.72-2.039-1.871c0-1.499,0.995-1.907,2.687-2.123
	c1.115-0.144,1.403-0.156,1.403-0.744c0-0.611-0.419-0.887-1.295-0.887c-0.828,0-1.271,0.36-1.271,0.995c0,0.012,0,0.036,0,0.048
	h-1.271c0-0.036,0-0.072,0-0.108c0-1.235,0.96-2.039,2.591-2.039c1.679,0,2.542,0.636,2.542,1.871v3.13
	c0,0.384,0.036,0.587,0.384,0.587c0.072,0,0.168-0.012,0.264-0.024v0.983c-0.228,0.06-0.456,0.096-0.684,0.096
	c-0.816,0-1.2-0.312-1.211-0.959C-35.358-143.761-36.114-143.389-36.941-143.389z M-36.737-146.327
	c-0.624,0.12-0.923,0.432-0.923,0.947c0,0.576,0.372,0.912,1.031,0.912c0.959,0,1.727-0.6,1.727-1.499v-0.792
	C-35.478-146.471-36.114-146.447-36.737-146.327z"/>
<path fill="#046CC6" d="M-24.988-152.216v8.623h-1.283v-0.828c-0.54,0.708-1.14,1.032-1.967,1.032c-1.583,0-2.711-1.295-2.711-3.334
	c0-2.099,1.151-3.394,2.699-3.394c0.852,0,1.499,0.324,1.967,0.983v-3.082H-24.988z M-29.594-146.711
	c0,1.367,0.636,2.146,1.655,2.146c1.079,0,1.679-0.768,1.679-2.23c0-1.416-0.587-2.147-1.679-2.147
	C-28.958-148.942-29.594-148.15-29.594-146.711z"/>
<path fill="#046CC6" d="M-20.668-152.216v8.623h-1.343v-8.623H-20.668z"/>
<path fill="#046CC6" d="M-16.615-146.387c0.024,1.188,0.612,1.835,1.607,1.835c0.719,0,1.235-0.384,1.403-1.031h1.332
	c-0.24,1.307-1.355,2.195-2.818,2.195c-1.787,0-2.915-1.248-2.915-3.382c0-2.099,1.115-3.346,2.95-3.346
	c1.751,0,2.878,1.188,2.878,3.262c0,0.144-0.012,0.3-0.024,0.468H-16.615z M-15.091-148.978c-0.912,0-1.439,0.576-1.523,1.619h3.035
	C-13.592-148.402-14.144-148.978-15.091-148.978z"/>
<path fill="#046CC6" d="M-8.917-149.913l1.571,4.869l1.56-4.869h1.439l-2.626,7.364c-0.408,1.139-0.804,1.571-1.991,1.571
	c-0.216,0-0.419-0.012-0.624-0.071v-1.176c0.168,0.036,0.336,0.06,0.504,0.06c0.468,0,0.731-0.132,0.887-0.575l0.18-0.528
	l-2.375-6.644H-8.917z"/>
<path fill="#046CC6" d="M6.598-152.216c0.252,0,0.408,0.012,0.456,0.012c1.511,0,2.435,0.899,2.435,2.399
	c0,0.983-0.456,1.703-1.235,2.003c0.815,0.264,0.983,0.792,1.031,1.727l0.072,1.235c0.024,0.503,0.036,0.815,0.359,0.995v0.252
	H8.109c-0.168-0.312-0.192-0.684-0.216-1.139l-0.048-1.032c-0.048-0.899-0.228-1.379-1.368-1.379c-0.024,0-0.12,0-0.275,0H4.307
	v3.55H2.88v-8.623H6.598z M4.295-148.354h2.051c1.127,0,1.691-0.336,1.691-1.343c0-0.996-0.576-1.308-1.655-1.308H4.295V-148.354z"
	/>
<path fill="#046CC6" d="M18.24-146.747c0,2.111-1.175,3.358-3.094,3.358c-1.931,0-3.106-1.235-3.106-3.358s1.164-3.37,3.094-3.37
	C17.065-150.117,18.24-148.858,18.24-146.747z M13.407-146.747c0,1.439,0.624,2.207,1.739,2.207c1.104,0,1.727-0.768,1.727-2.207
	c0-1.451-0.624-2.219-1.727-2.219C14.031-148.966,13.407-148.186,13.407-146.747z"/>
<path fill="#046CC6" d="M22.394-151.652v1.739h1.056v0.995h-1.056v3.718c0,0.419,0.084,0.576,0.528,0.576
	c0.096,0,0.18-0.012,0.264-0.012l0.264-0.012v1.068c-0.359,0.036-0.672,0.072-0.947,0.072c-1.115,0-1.439-0.456-1.439-1.523v-3.886
	h-0.899v-0.995h0.899v-1.739H22.394z"/>
<path fill="#046CC6" d="M27.236-152.216v3.118c0.408-0.624,1.079-0.972,1.931-0.972c1.392,0,2.159,0.696,2.159,1.991
	c0,0.096,0.012,0.288,0.012,0.563v3.922h-1.343v-3.634c0-0.084,0-0.168,0-0.264c0-0.971-0.336-1.427-1.212-1.427
	c-0.899,0-1.547,0.6-1.547,1.583v3.742h-1.343v-8.623H27.236z"/>
<path fill="#046CC6" d="M35.358-146.387c0.023,1.188,0.611,1.835,1.606,1.835c0.72,0,1.235-0.384,1.403-1.031h1.331
	c-0.239,1.307-1.354,2.195-2.818,2.195c-1.787,0-2.914-1.248-2.914-3.382c0-2.099,1.115-3.346,2.95-3.346
	c1.751,0,2.879,1.188,2.879,3.262c0,0.144-0.013,0.3-0.024,0.468H35.358z M36.881-148.978c-0.911,0-1.438,0.576-1.522,1.619h3.034
	C38.38-148.402,37.829-148.978,36.881-148.978z"/>
<path fill="#046CC6" d="M47.848-143.593h-1.344v-3.862c0-0.156,0-0.252,0-0.288c0-0.768-0.407-1.187-1.151-1.187
	c-0.995,0-1.606,0.6-1.606,1.667v3.67h-1.344v-6.32h1.296v0.852c0.443-0.648,1.139-1.008,1.931-1.008
	c1.775,0,2.219,0.852,2.219,2.459V-143.593z"/>
<path fill="#046CC6" d="M52.08-152.216v3.142c0.456-0.684,1.116-1.043,1.968-1.043c1.547,0,2.698,1.283,2.698,3.394
	c0,2.051-1.128,3.334-2.711,3.334c-0.852,0-1.438-0.324-1.967-1.032v0.828h-1.283v-8.623H52.08z M52.057-146.747
	c0,1.427,0.611,2.183,1.679,2.183c1.02,0,1.655-0.779,1.655-2.146c0-1.439-0.636-2.231-1.655-2.231
	C52.632-148.942,52.057-148.198,52.057-146.747z"/>
<path fill="#046CC6" d="M60.499-146.387c0.023,1.188,0.611,1.835,1.606,1.835c0.72,0,1.235-0.384,1.403-1.031h1.331
	c-0.239,1.307-1.354,2.195-2.818,2.195c-1.787,0-2.914-1.248-2.914-3.382c0-2.099,1.115-3.346,2.95-3.346
	c1.751,0,2.879,1.188,2.879,3.262c0,0.144-0.013,0.3-0.024,0.468H60.499z M62.021-148.978c-0.911,0-1.438,0.576-1.522,1.619h3.034
	C63.521-148.402,62.97-148.978,62.021-148.978z"/>
<path fill="#046CC6" d="M70.854-148.666h-0.36c-1.079,0-1.618,0.54-1.618,1.631v3.442h-1.332v-6.32h1.26v1.115
	c0.372-0.852,0.959-1.259,1.751-1.259c0.023,0,0.132,0.012,0.3,0.012V-148.666z"/>
<path fill="#046CC6" d="M75.678-143.485c-1.691,0-2.771-1.319-2.771-3.286c0-2.039,1.092-3.346,2.782-3.346
	c0.828,0,1.428,0.312,1.896,0.996v-0.792h1.283v6.057c0,1.955-0.768,2.878-2.999,2.878c-1.751,0-2.722-0.755-2.734-1.931h1.38
	c0.036,0.54,0.503,0.827,1.354,0.827c1.271,0,1.703-0.515,1.703-1.606v-0.732C77.165-143.809,76.518-143.485,75.678-143.485z
	 M75.941-144.636c1.104,0,1.655-0.708,1.655-2.147c0-1.427-0.588-2.17-1.703-2.17c-0.995,0-1.619,0.779-1.619,2.111
	C74.274-145.392,74.886-144.636,75.941-144.636z"/>
<rect x="8" y="-41" fill="#F0F0F0" width="28" height="36"/>
<rect y="-41" fill="#FFFFFF" width="36" height="16"/>
<rect fill="#373636" width="36" height="36"/>
<rect x="8" fill="#F0F0F0" width="28" height="36"/>
<rect x="-39" y="-67" fill="#E4E4E4" width="28" height="36"/>
<rect x="-69" y="-66" fill="#373636" width="28" height="36"/>
<rect fill="#E4E4E4" width="36" height="16"/>
<rect x="89" fill="#046CC6" width="36" height="36"/>
<rect x="97" fill="#373636" width="28" height="36"/>
<rect x="89" fill="#E4E4E4" width="36" height="16"/>
<rect x="43" y="-1" fill="#373636" width="36" height="36"/>
<rect x="51" y="-1" fill="#046CC6" width="28" height="36"/>
<rect x="43" y="-1" fill="#E4E4E4" width="36" height="16"/>
<rect x="51" y="-42" fill="#373636" width="28" height="36"/>
<rect x="43" y="-42" fill="#046CC6" width="36" height="16"/>
<rect x="87" y="-42" fill="#F0F0F0" width="36" height="36"/>
<rect x="95" y="-42" fill="#046CC6" width="28" height="36"/>
<rect x="87" y="-42" fill="#373636" width="36" height="16"/>
</svg>
