<?xml version="1.0" encoding="utf-8"?>
<!-- Generator: Adobe Illustrator 16.0.0, SVG Export Plug-In . SVG Version: 6.00 Build 0)  -->
<!DOCTYPE svg PUBLIC "-//W3C//DTD SVG 1.1//EN" "http://www.w3.org/Graphics/SVG/1.1/DTD/svg11.dtd">
<svg version="1.1" id="Layer_1" xmlns="http://www.w3.org/2000/svg" xmlns:xlink="http://www.w3.org/1999/xlink" x="0px" y="0px"
	 width="20px" height="20px" viewBox="0 0 20 20" enable-background="new 0 0 20 20" xml:space="preserve">
<g>
	<defs>
		<rect id="SVGID_1_" x="0" y="2.001" width="20" height="16.999"/>
	</defs>
	<clipPath id="SVGID_2_">
		<use xlink:href="#SVGID_1_"  overflow="visible"/>
	</clipPath>
	<path clip-path="url(#SVGID_2_)" fill="#F0F0F0" d="M20,4.014c-0.736,0.341-1.527,0.572-2.357,0.676
		c0.847-0.531,1.499-1.372,1.804-2.375c-0.792,0.492-1.671,0.849-2.604,1.042c-0.749-0.834-1.815-1.355-2.995-1.355
		c-2.266,0-4.104,1.921-4.104,4.291c0,0.336,0.037,0.664,0.105,0.978c-3.41-0.179-6.433-1.887-8.457-4.484
		C1.039,3.421,0.836,4.158,0.836,4.945c0,1.489,0.725,2.802,1.826,3.572C1.989,8.494,1.356,8.301,0.803,7.98
		c0,0.018,0,0.036,0,0.054c0,2.08,1.414,3.814,3.291,4.208c-0.345,0.098-0.707,0.15-1.081,0.15c-0.265,0-0.522-0.027-0.772-0.078
		c0.522,1.705,2.037,2.947,3.833,2.98c-1.404,1.152-3.173,1.838-5.096,1.838c-0.332,0-0.658-0.021-0.979-0.061
		C1.815,18.289,3.973,19,6.289,19c7.548,0,11.675-6.539,11.675-12.209c0-0.186-0.004-0.371-0.011-0.556
		C18.754,5.63,19.449,4.875,20,4.014"/>
</g>
</svg>
